<svg width="128" height="128" viewBox="0 0 128 128" fill="none" xmlns="http://www.w3.org/2000/svg">
<rect width="128" height="128" fill=""/>
<ellipse cx="63" cy="65" rx="57" ry="56" fill="black"/>
<path d="M87.2646 14.1797C94.0724 16.9611 100.265 21.0582 105.488 26.237C110.712 31.4159 114.864 37.5751 117.708 44.363C120.552 51.1509 122.033 58.4346 122.064 65.7981C122.096 73.1617 120.678 80.4609 117.893 87.2791C115.107 94.0973 111.008 100.301 105.829 105.536C100.65 110.77 94.4934 114.934 87.7098 117.788C80.9263 120.643 73.649 122.132 66.2934 122.172C58.9379 122.212 51.6481 120.8 44.8403 118.019L66.0525 66.0994L87.2646 14.1797Z" fill="#5918DF"/>
<path d="M38.0455 41.4545H50.1818L63 72.7273H63.5455L76.3636 41.4545H88.5V88H78.9545V57.7045H78.5682L66.5227 87.7727H60.0227L47.9773 57.5909H47.5909V88H38.0455V41.4545Z" fill="white"/>
</svg>
